{
    "asset" : {
        "generator" : "Khronos glTF Blender I/O v3.3.27",
        "version" : "2.0"
    },
    "scene" : 0,
    "scenes" : [
        {
            "name" : "Scene",
            "nodes" : [
                0,
                1,
                2
            ]
        }
    ],
    "nodes" : [
        {
            "mesh" : 0,
            "name" : "Donut"
        },
        {
            "mesh" : 1,
            "name" : "Icing",
            "translation" : [
                0.0004734404501505196,
                -0.00012377194070722908,
                0
            ]
        },
        {
            "mesh" : 2,
            "name" : "Sprinkle"
        }
    ],
    "animations" : [
        {
            "channels" : [
                {
                    "sampler" : 0,
                    "target" : {
                        "node" : 1,
                        "path" : "rotation"
                    }
                }
            ],
            "name" : "IcingAction",
            "samplers" : [
                {
                    "input" : 13,
                    "interpolation" : "LINEAR",
                    "output" : 14
                }
            ]
        }
    ],
    "materials" : [
        {
            "doubleSided" : true,
            "name" : "Material.001",
            "pbrMetallicRoughness" : {
                "baseColorFactor" : [
                    0.8000000715255737,
                    0.5461523532867432,
                    0.18247896432876587,
                    1
                ],
                "metallicFactor" : 0,
                "roughnessFactor" : 0.5
            }
        },
        {
            "doubleSided" : true,
            "name" : "Material",
            "pbrMetallicRoughness" : {
                "baseColorFactor" : [
                    0.7305564880371094,
                    0.03473295643925667,
                    0.8000000715255737,
                    1
                ],
                "metallicFactor" : 0,
                "roughnessFactor" : 0.1548387110233307
            }
        },
        {
            "doubleSided" : true,
            "name" : "Sprinkles",
            "pbrMetallicRoughness" : {
                "metallicFactor" : 0,
                "roughnessFactor" : 0.5
            }
        }
    ],
    "meshes" : [
        {
            "name" : "Torus.002",
            "primitives" : [
                {
                    "attributes" : {
                        "POSITION" : 0,
                        "NORMAL" : 1,
                        "TEXCOORD_0" : 2
                    },
                    "indices" : 3,
                    "material" : 0
                }
            ]
        },
        {
            "name" : "Torus.001",
            "primitives" : [
                {
                    "attributes" : {
                        "POSITION" : 4,
                        "NORMAL" : 5,
                        "TEXCOORD_0" : 6,
                        "COLOR_0" : 7
                    },
                    "indices" : 8,
                    "material" : 1
                }
            ]
        },
        {
            "name" : "Cylinder",
            "primitives" : [
                {
                    "attributes" : {
                        "POSITION" : 9,
                        "NORMAL" : 10,
                        "TEXCOORD_0" : 11
                    },
                    "indices" : 12,
                    "material" : 2
                }
            ]
        }
    ],
    "accessors" : [
        {
            "bufferView" : 0,
            "componentType" : 5126,
            "count" : 2673,
            "max" : [
                0.05027858540415764,
                0.049299031496047974,
                0.01182177010923624
            ],
            "min" : [
                -0.047879908233881,
                -0.04847848042845726,
                -0.030150508508086205
            ],
            "type" : "VEC3"
        },
        {
            "bufferView" : 1,
            "componentType" : 5126,
            "count" : 2673,
            "type" : "VEC3"
        },
        {
            "bufferView" : 2,
            "componentType" : 5126,
            "count" : 2673,
            "type" : "VEC2"
        },
        {
            "bufferView" : 3,
            "componentType" : 5123,
            "count" : 15360,
            "type" : "SCALAR"
        },
        {
            "bufferView" : 4,
            "componentType" : 5126,
            "count" : 10996,
            "max" : [
                0.05195193737745285,
                0.0510854572057724,
                0.017509112134575844
            ],
            "min" : [
                -0.04850534349679947,
                -0.05037324130535126,
                -0.02089747227728367
            ],
            "type" : "VEC3"
        },
        {
            "bufferView" : 5,
            "componentType" : 5126,
            "count" : 10996,
            "type" : "VEC3"
        },
        {
            "bufferView" : 6,
            "componentType" : 5126,
            "count" : 10996,
            "type" : "VEC2"
        },
        {
            "bufferView" : 7,
            "componentType" : 5123,
            "count" : 10996,
            "normalized" : true,
            "type" : "VEC4"
        },
        {
            "bufferView" : 8,
            "componentType" : 5123,
            "count" : 65568,
            "type" : "SCALAR"
        },
        {
            "bufferView" : 9,
            "componentType" : 5126,
            "count" : 1572,
            "max" : [
                0.04135946184396744,
                0.044437944889068604,
                0.02011607028543949
            ],
            "min" : [
                -0.029419342055916786,
                -0.04167666658759117,
                0.004104645922780037
            ],
            "type" : "VEC3"
        },
        {
            "bufferView" : 10,
            "componentType" : 5126,
            "count" : 1572,
            "type" : "VEC3"
        },
        {
            "bufferView" : 11,
            "componentType" : 5126,
            "count" : 1572,
            "type" : "VEC2"
        },
        {
            "bufferView" : 12,
            "componentType" : 5123,
            "count" : 6048,
            "type" : "SCALAR"
        },
        {
            "bufferView" : 13,
            "componentType" : 5126,
            "count" : 301,
            "max" : [
                10
            ],
            "min" : [
                0
            ],
            "type" : "SCALAR"
        },
        {
            "bufferView" : 14,
            "componentType" : 5126,
            "count" : 301,
            "type" : "VEC4"
        }
    ],
    "bufferViews" : [
        {
            "buffer" : 0,
            "byteLength" : 32076,
            "byteOffset" : 0,
            "target" : 34962
        },
        {
            "buffer" : 0,
            "byteLength" : 32076,
            "byteOffset" : 32076,
            "target" : 34962
        },
        {
            "buffer" : 0,
            "byteLength" : 21384,
            "byteOffset" : 64152,
            "target" : 34962
        },
        {
            "buffer" : 0,
            "byteLength" : 30720,
            "byteOffset" : 85536,
            "target" : 34963
        },
        {
            "buffer" : 0,
            "byteLength" : 131952,
            "byteOffset" : 116256,
            "target" : 34962
        },
        {
            "buffer" : 0,
            "byteLength" : 131952,
            "byteOffset" : 248208,
            "target" : 34962
        },
        {
            "buffer" : 0,
            "byteLength" : 87968,
            "byteOffset" : 380160,
            "target" : 34962
        },
        {
            "buffer" : 0,
            "byteLength" : 87968,
            "byteOffset" : 468128,
            "target" : 34962
        },
        {
            "buffer" : 0,
            "byteLength" : 131136,
            "byteOffset" : 556096,
            "target" : 34963
        },
        {
            "buffer" : 0,
            "byteLength" : 18864,
            "byteOffset" : 687232,
            "target" : 34962
        },
        {
            "buffer" : 0,
            "byteLength" : 18864,
            "byteOffset" : 706096,
            "target" : 34962
        },
        {
            "buffer" : 0,
            "byteLength" : 12576,
            "byteOffset" : 724960,
            "target" : 34962
        },
        {
            "buffer" : 0,
            "byteLength" : 12096,
            "byteOffset" : 737536,
            "target" : 34963
        },
        {
            "buffer" : 0,
            "byteLength" : 1204,
            "byteOffset" : 749632
        },
        {
            "buffer" : 0,
            "byteLength" : 4816,
            "byteOffset" : 750836
        }
    ],
    "buffers" : [
        {
            "byteLength" : 755652,
            "uri" : "data:application/octet-stream;base64,"
        }
    ]
}
