<?xml version="1.0" standalone="no"?>
<!DOCTYPE svg PUBLIC "-//W3C//DTD SVG 20010904//EN"
 "http://www.w3.org/TR/2001/REC-SVG-20010904/DTD/svg10.dtd">
<svg version="1.0" xmlns="http://www.w3.org/2000/svg"
 width="182.000000pt" height="132.000000pt" viewBox="0 0 182.000000 132.000000"
 preserveAspectRatio="xMidYMid meet">

<g transform="translate(0.000000,132.000000) scale(0.100000,-0.100000)"
fill="#000000" stroke="none">
<path d="M988 1250 c-215 -27 -480 -126 -633 -235 -170 -121 -270 -305 -250
-462 43 -344 406 -549 895 -504 345 31 566 171 691 436 82 173 86 335 13 483
-87 177 -272 276 -538 286 -61 3 -141 1 -178 -4z m-37 -180 c50 -14 98 -53
174 -143 62 -73 115 -117 141 -117 6 0 14 18 18 39 8 53 49 101 87 101 40 0
64 -37 54 -87 -7 -41 -56 -93 -86 -93 -14 0 -19 -7 -19 -29 0 -59 22 -185 40
-232 17 -42 17 -48 4 -53 -26 -10 -33 -7 -48 23 -15 28 -29 107 -41 222 -6 56
-6 57 -51 74 -30 11 -79 48 -139 105 -94 88 -135 111 -161 89 -19 -16 -18 -32
6 -62 26 -33 25 -45 -6 -91 -22 -32 -30 -37 -52 -31 -32 8 -69 40 -88 77 -35
67 0 167 71 199 47 22 49 22 96 9z m-211 -198 c0 -53 -2 -60 -25 -70 -17 -8
-25 -20 -25 -36 0 -66 89 -82 259 -45 46 10 50 13 53 42 2 27 7 32 28 32 20 0
26 -6 31 -30 l6 -30 11 28 c14 32 51 37 59 8 3 -13 17 -20 45 -24 47 -6 61
-17 52 -41 -5 -13 -15 -15 -55 -10 l-49 7 0 -62 c0 -111 42 -171 120 -171 28
0 31 -3 28 -27 -3 -25 -8 -28 -43 -31 -88 -6 -145 69 -153 201 -2 42 -8 77
-13 77 -11 0 -11 -26 1 -117 13 -98 39 -147 90 -169 44 -20 50 -39 22 -74 -26
-32 -64 -20 -101 31 -32 43 -54 127 -66 242 -4 42 -11 67 -19 67 -6 0 -39 -10
-71 -22 -42 -15 -84 -22 -140 -22 -105 -1 -167 28 -202 93 -56 107 2 209 120
211 l37 0 0 -58z m654 -124 c3 -13 6 -42 6 -65 0 -66 19 -139 46 -179 23 -33
24 -39 10 -52 -33 -33 -68 15 -92 126 -14 70 -19 174 -7 185 13 14 31 6 37
-15z m-864 -23 c101 -51 121 -231 39 -347 -25 -35 -90 -67 -136 -68 -61 0 -63
3 -63 106 0 76 -3 96 -15 101 -41 15 -58 109 -30 163 32 62 129 83 205 45z
m1000 -45 c25 -25 27 -105 4 -138 -37 -54 -104 -5 -104 76 0 75 54 108 100 62z
m-274 -35 c23 -36 14 -58 -30 -70 -31 -9 -35 -13 -24 -23 11 -9 19 -8 36 4 12
8 27 12 32 9 17 -10 11 -44 -9 -55 -55 -29 -111 8 -111 74 0 73 71 115 106 61z
m-256 -41 c13 -33 13 -130 0 -155 -13 -23 -62 -26 -79 -5 -7 8 -17 27 -22 43
-7 23 -8 19 -5 -22 4 -52 30 -85 67 -85 21 0 25 -20 7 -38 -19 -19 -44 -14
-76 13 -30 25 -52 86 -52 144 0 61 -19 29 -22 -36 -3 -60 -5 -68 -23 -68 -18
0 -21 9 -27 76 -4 41 -8 82 -10 90 -2 9 6 14 22 15 14 0 33 4 44 9 24 10 48
-5 58 -36 5 -17 7 -12 5 19 -2 33 1 43 16 48 10 3 20 4 22 2 2 -2 8 -32 14
-67 6 -35 13 -66 16 -69 14 -15 18 15 8 71 -6 34 -8 65 -6 70 9 16 34 6 43
-19z m-252 -75 c16 -29 8 -103 -13 -136 -22 -32 -69 -31 -91 2 -12 19 -15 39
-12 77 9 89 80 124 116 57z"/>
<path d="M1346 879 c-9 -13 -16 -34 -16 -47 0 -20 3 -21 20 -12 23 12 37 57
22 72 -6 6 -15 2 -26 -13z"/>
<path d="M416 654 c-20 -19 -20 -29 -1 -48 11 -11 22 -13 39 -7 20 8 24 5 40
-37 16 -44 16 -47 -1 -59 -9 -7 -23 -13 -30 -13 -9 0 -13 -16 -13 -51 0 -51 0
-51 23 -37 67 44 93 193 42 243 -28 29 -76 33 -99 9z"/>
<path d="M1487 633 c-13 -12 -7 -43 8 -43 9 0 15 9 15 25 0 24 -10 32 -23 18z"/>
<path d="M1200 620 c-12 -8 -10 -10 8 -10 13 0 20 4 17 10 -7 12 -6 12 -25 0z"/>
<path d="M697 493 c-11 -10 -8 -53 3 -53 6 0 10 14 10 30 0 31 -2 35 -13 23z"/>
</g>
</svg>
